<svg width="370" height="80" viewBox="0 0 370 80" fill="none" xmlns="http://www.w3.org/2000/svg">
<g filter="url(#filter0_d_11_4)">
<rect width="2000" height="2802.43" transform="translate(-1178.28 -2512.55)" fill="white"/>
<path d="M18.5022 50.8633C16.9463 50.5496 20.6401 50.8547 20.6432 49.2675L20.6576 41.9143C20.6583 41.5396 20.7643 41.1727 20.9634 40.8553L21.4486 40.0819C21.4828 40.0273 21.5098 39.9802 21.5391 39.9227C22.127 38.7663 29.2312 25.021 34.5 25.5C38.9955 25.9087 39.8165 30.4625 39.9665 32.1123C40.0016 32.499 39.887 32.8777 39.6747 33.2029L28.9428 49.64C28.6588 50.075 28.2196 50.3822 27.7102 50.4838C25.8361 50.8578 21.1194 51.6836 19 51C18.7946 50.9338 18.6304 50.8892 18.5022 50.8633ZM13.8633 63C12.7587 63 11.8633 62.1046 11.8633 61V18.4546C11.8633 17.35 12.7587 16.4546 13.8633 16.4546H19.5451C20.6497 16.4546 21.5451 17.35 21.5451 18.4546V61C21.5451 62.1046 20.6497 63 19.5451 63H13.8633ZM33.6815 63C31.8323 63.0001 24.6386 54.4124 21.802 50.9356C21.1411 50.1256 21.235 48.9511 22.0018 48.2405L28.2873 42.4152C29.1388 41.626 30.4743 41.7204 31.1875 42.6364C34.496 46.8854 42.8027 57.8655 42 60C41 62.659 36 63 33.6815 63Z" fill="black"/>
<path d="M71.4996 48.1364L70.6526 32.0429C70.6031 31.1028 71.2134 30.257 72.1314 30.0483C74.7392 29.4552 79.7646 28.5292 80.5 30C81.3465 31.693 81.2482 54.1664 81.1981 61.0258C81.19 62.1223 80.2985 63 79.2019 63H72.9014C72.3406 63 71.886 62.5454 71.886 61.9847V61.9847C71.886 61.1566 71.0003 60.7478 70.3109 61.2066C69.9222 61.4654 69.4654 61.6894 68.6789 61.9434C68.5602 61.9818 68.4451 62.0303 68.334 62.0869C66.2397 63.1527 63.4846 63.4546 60.9315 63.4546C58.5981 63.4546 56.5451 62.9243 54.7724 61.8637C52.9996 60.8031 51.6133 59.2955 50.6133 57.341C49.632 55.3934 49.132 53.0623 49.1135 50.3476C49.1133 50.3281 49.1134 50.3207 49.1127 50.3012C49.0915 49.6872 48.5111 32.6636 49.1133 30.4319C49.7266 28.1591 58.5902 27.8637 58.7951 30.4319C58.9971 32.9633 58.8009 48.1479 58.7952 48.5815C58.795 48.5951 58.7951 48.5979 58.7953 48.6116C58.8139 50.6624 59.3669 52.2843 60.4542 53.4773C61.5451 54.6743 63.0072 55.2728 64.8406 55.2728C66.0072 55.2728 67.0981 55.0076 68.1133 54.4773C69.1284 53.9319 69.9466 53.1288 70.5678 52.0682C71.2042 51.0076 71.5148 49.697 71.4996 48.1364Z" fill="black"/>
<path d="M98.6083 42.7638C98.6077 42.8 98.6084 42.8358 98.6099 42.8719C98.6581 43.9809 99.4225 61.8989 98.6076 63C97.7667 64.1364 89.8516 63 88.9258 63C88 63 88.5 30 88.9258 28.091C89.3516 26.1819 97.5 26.5 98.1531 28.091C98.7679 29.5888 98.225 30.3314 98.1594 30.4132C98.1551 30.4185 98.1513 30.4237 98.1478 30.4295V30.4295C98.0764 30.5475 97.9569 30.4834 98.0561 30.3876C98.4277 30.0287 98.949 30.315 101 29.2273C104 27.6364 106.471 27.6364 109.062 27.6364C111.486 27.6364 113.6 28.1667 115.403 29.2273C117.206 30.2879 118.608 31.8031 119.608 33.7728C120.608 35.7273 121.108 38.0607 121.108 40.7728V61C121.108 62.1046 120.212 63 119.108 63H113.426C112.321 63 111.426 62.1046 111.426 61V42.5C111.441 40.3637 110.895 38.697 109.789 37.5C108.683 36.2879 107.161 35.6819 105.221 35.6819C103.918 35.6819 102.767 35.9622 101.767 36.5228C100.782 37.0834 100.009 37.9016 99.4485 38.9773C98.9097 40.0251 98.6296 41.2873 98.6083 42.7638Z" fill="black"/>
<path d="M156.556 36C155.87 36.9752 152.848 37.7776 150.818 38.2196C149.764 38.4491 148.784 37.7072 148.159 36.8277C148.091 36.7319 148.019 36.6378 147.943 36.5455C147.443 35.9243 146.784 35.4319 145.966 35.0682C145.163 34.6894 144.2 34.5 143.079 34.5C141.579 34.5 140.314 34.8182 139.284 35.4546C138.253 36.0758 137.738 36.9091 137.738 37.9546C137.738 38.7879 138.072 39.4925 138.738 40.0682C139.405 40.644 140.549 41.1061 142.17 41.4546L148.488 42.7273C151.882 43.4243 154.413 44.5455 156.079 46.091C157.746 47.6364 158.579 49.6667 158.579 52.1819C158.579 54.4697 157.905 56.4773 156.556 58.2046C155.223 59.9319 153.39 61.2803 151.056 62.25C148.738 63.2046 146.064 63.6819 143.034 63.6819C138.413 63.6819 134.731 62.7197 131.988 60.7955C129.261 58.8561 127.5 57 128.125 55.2728C128.554 54.0844 132.459 53.165 134.854 52.7069C135.896 52.5078 136.834 53.2372 137.386 54.1422C137.744 54.7274 138.217 55.2179 138.806 55.6137C139.913 56.341 141.329 56.7046 143.056 56.7046C144.753 56.7046 146.117 56.3788 147.147 55.7273C148.193 55.0607 148.723 54.2046 148.738 53.1591C148.723 52.2803 148.352 51.5607 147.625 51C146.897 50.4243 145.776 49.9849 144.261 49.6819L138.216 48.4773C134.806 47.7955 132.269 46.6137 130.602 44.9319C128.95 43.25 128.125 41.1061 128.125 38.5C128.125 36.2576 128.731 34.3258 129.943 32.7046C131.17 31.0834 132.89 29.8334 135.102 28.9546C137.329 28.0758 139.935 27.6364 142.92 27.6364C147.329 27.6364 150.799 28.5682 153.329 30.4319C155.875 32.2955 157.613 34.5 156.556 36Z" fill="black"/>
<path d="M265.283 63C264.21 63 263.33 62.1698 263.289 61.0981C263.024 54.0358 262.198 29.6447 263.363 28.091C264.727 26.2728 272.591 26.5 272.591 28.091C272.591 29.2536 272.591 30.5377 272.591 31.1447C272.591 31.3683 272.483 31.5773 272.301 31.7077V31.7077C271.749 32.104 271.337 31.7125 271.896 31.3256C273.088 30.5003 274.709 29.9998 275.818 29.2273C277.515 28.0455 280.363 27.6364 282.727 27.6364C285.121 27.6364 287.159 28.2349 288.841 29.4319C290.472 30.5782 291.576 32.1238 292.152 34.0686C292.184 34.1755 292.281 34.25 292.393 34.25V34.25C292.498 34.25 292.591 34.1839 292.628 34.0858C293.351 32.1623 294.619 30.6186 296.431 29.4546C298.31 28.2425 300.53 27.6364 303.091 27.6364C306.348 27.6364 308.992 28.6743 311.022 30.75C313.068 32.8107 314.091 35.7349 314.091 39.5228V61C314.091 62.1046 313.195 63 312.091 63H306.431C305.327 63 304.431 62.1046 304.431 61V41.4319C304.431 39.4925 303.916 38.0379 302.886 37.0682C301.856 36.0985 300.568 35.6137 299.022 35.6137C297.265 35.6137 295.894 36.1743 294.909 37.2955C293.924 38.4016 293.431 39.8637 293.431 41.6819V61C293.431 62.1046 292.536 63 291.431 63H286.045C284.941 63 284.045 62.1046 284.045 61V41.2273C284.045 39.5152 283.553 38.1516 282.568 37.1364C281.598 36.1213 280.318 35.6137 278.727 35.6137C277.651 35.6137 276.681 35.8864 275.818 36.4319C274.969 36.9622 274.295 37.7122 273.795 38.6819C273.295 39.6364 273.045 40.7576 273.045 42.0455V61C273.045 62.1046 272.15 63 271.045 63H265.283Z" fill="black"/>
<path d="M337.647 63.6819C334.056 63.6819 330.966 62.9546 328.375 61.5C325.799 60.0303 323.814 57.9546 322.42 55.2728C321.026 52.5758 320.329 49.3864 320.329 45.7046C320.329 42.1137 321.026 38.9622 322.42 36.25C323.814 33.5379 325.776 31.4243 328.306 29.9091C330.852 28.394 333.837 27.6364 337.261 27.6364C339.564 27.6364 341.708 28.0076 343.693 28.75C345.693 29.4773 347.435 30.5758 348.92 32.0455C350.42 33.5152 351.587 35.3637 352.42 37.591C353.253 39.8031 353.67 42.394 353.67 45.3637V46.0228C353.67 47.1273 352.775 48.0228 351.67 48.0228H326.193C325.088 48.0228 324.193 47.1273 324.193 46.0228V44.0228C324.193 42.9182 325.088 42.0228 326.193 42.0228H342.556C343.661 42.0228 344.591 41.1133 344.327 40.0409C344.175 39.4273 343.949 38.8531 343.647 38.3182C343.041 37.2425 342.2 36.4016 341.125 35.7955C340.064 35.1743 338.829 34.8637 337.42 34.8637C335.95 34.8637 334.647 35.2046 333.511 35.8864C332.39 36.5531 331.511 37.4546 330.875 38.591C330.238 39.7122 329.913 40.9622 329.897 42.341V48.0455C329.897 49.7728 330.216 51.2652 330.852 52.5228C331.503 53.7803 332.42 54.75 333.602 55.4319C334.784 56.1137 336.185 56.4546 337.806 56.4546C338.882 56.4546 339.867 56.3031 340.761 56C341.655 55.697 342.42 55.2425 343.056 54.6364C343.448 54.2633 343.783 53.8386 344.059 53.3622C344.391 52.791 344.893 52.316 345.542 52.1915C347.72 51.7737 352.655 51.0619 353.466 53C354.511 55.5001 352.079 57.0303 350.67 58.6364C349.276 60.2273 347.473 61.4697 345.261 62.3637C343.064 63.2425 340.526 63.6819 337.647 63.6819Z" fill="black"/>
<path d="M71.4996 48.1364L70.6526 32.0429C70.6031 31.1028 71.2134 30.257 72.1314 30.0483C74.7392 29.4552 79.7646 28.5292 80.5 30C81.3465 31.693 81.2482 54.1664 81.1981 61.0258C81.19 62.1223 80.2985 63 79.2019 63H72.9014C72.3406 63 71.886 62.5454 71.886 61.9847V61.9847C71.886 61.1566 71.0003 60.7478 70.3109 61.2066C69.9222 61.4654 69.4654 61.6894 68.6789 61.9434C68.5602 61.9818 68.4451 62.0303 68.334 62.0869C66.2397 63.1527 63.4846 63.4546 60.9315 63.4546C58.5981 63.4546 56.5451 62.9243 54.7724 61.8637C52.9996 60.8031 51.6133 59.2955 50.6133 57.341C49.632 55.3934 49.132 53.0623 49.1135 50.3476C49.1133 50.3281 49.1134 50.3207 49.1127 50.3012C49.0915 49.6872 48.5111 32.6636 49.1133 30.4319C49.7266 28.1591 58.5902 27.8637 58.7951 30.4319C58.9971 32.9633 58.8009 48.1479 58.7952 48.5815C58.795 48.5951 58.7951 48.5979 58.7953 48.6116C58.8139 50.6624 59.3669 52.2843 60.4542 53.4773C61.5451 54.6743 63.0072 55.2728 64.8406 55.2728C66.0072 55.2728 67.0981 55.0076 68.1133 54.4773C69.1284 53.9319 69.9466 53.1288 70.5678 52.0682C71.2042 51.0076 71.5148 49.697 71.4996 48.1364Z" fill="black"/>
<path d="M98.6083 42.7638C98.6077 42.8 98.6084 42.8358 98.6099 42.8719C98.6581 43.9809 99.4225 61.8989 98.6076 63C97.7667 64.1364 89.8516 63 88.9258 63C88 63 88.5 30 88.9258 28.091C89.3516 26.1819 97.5 26.5 98.1531 28.091C98.7679 29.5888 98.225 30.3314 98.1594 30.4132C98.1551 30.4185 98.1513 30.4237 98.1478 30.4295V30.4295C98.0764 30.5475 97.9569 30.4834 98.0561 30.3876C98.4277 30.0287 98.949 30.315 101 29.2273C104 27.6364 106.471 27.6364 109.062 27.6364C111.486 27.6364 113.6 28.1667 115.403 29.2273C117.206 30.2879 118.608 31.8031 119.608 33.7728C120.608 35.7273 121.108 38.0607 121.108 40.7728V61C121.108 62.1046 120.212 63 119.108 63H113.426C112.321 63 111.426 62.1046 111.426 61V42.5C111.441 40.3637 110.895 38.697 109.789 37.5C108.683 36.2879 107.161 35.6819 105.221 35.6819C103.918 35.6819 102.767 35.9622 101.767 36.5228C100.782 37.0834 100.009 37.9016 99.4485 38.9773C98.9097 40.0251 98.6296 41.2873 98.6083 42.7638Z" fill="black"/>
<path d="M187.892 48.1364L187.045 32.0429C186.996 31.1028 187.606 30.257 188.524 30.0483C191.132 29.4552 196.157 28.5292 196.892 30C197.739 31.693 197.641 54.1664 197.59 61.0258C197.582 62.1223 196.691 63 195.594 63H189.294C188.733 63 188.278 62.5454 188.278 61.9847V61.9847C188.278 61.1566 187.393 60.7478 186.703 61.2066C186.315 61.4654 185.858 61.6894 185.071 61.9434C184.953 61.9818 184.837 62.0303 184.726 62.0869C182.632 63.1527 179.877 63.4546 177.324 63.4546C174.991 63.4546 172.938 62.9243 171.165 61.8637C169.392 60.8031 168.006 59.2955 167.006 57.341C166.021 55.3864 165.521 53.0455 165.506 50.3182V31.962C165.506 31.0589 166.111 30.2683 166.992 30.0701C169.668 29.4682 175.034 28.5064 175.188 30.4319C175.389 32.9633 175.193 48.1479 175.188 48.5815C175.187 48.5951 175.188 48.5979 175.188 48.6116C175.206 50.6624 175.759 52.2843 176.847 53.4773C177.937 54.6743 179.4 55.2728 181.233 55.2728C182.4 55.2728 183.491 55.0076 184.506 54.4773C185.521 53.9319 186.339 53.1288 186.96 52.0682C187.597 51.0076 187.907 49.697 187.892 48.1364Z" fill="black"/>
<path d="M215 42.8182V61C215 62.1046 214.105 63 213 63H207.318C206.214 63 205.318 62.1046 205.318 61V30.091C205.318 28.9864 206.214 28.091 207.318 28.091H212.724C213.73 28.091 214.545 28.9065 214.545 29.9125V30.3897C214.545 30.41 214.54 30.43 214.529 30.4474V30.4474C214.459 30.5634 214.339 30.4992 214.434 30.4022C214.807 30.0209 215.314 30.3294 217.392 29.2273C220.392 27.6364 222.864 27.6364 225.455 27.6364C227.879 27.6364 229.992 28.1667 231.795 29.2273C233.598 30.2879 235 31.8031 236 33.7728C237 35.7273 237.5 38.0607 237.5 40.7728V61C237.5 62.1046 236.605 63 235.5 63H229.818C228.714 63 227.818 62.1046 227.818 61V42.5C227.833 40.3637 227.288 38.697 226.182 37.5C225.076 36.2879 223.553 35.6819 221.614 35.6819C220.311 35.6819 219.159 35.9622 218.159 36.5228C217.174 37.0834 216.402 37.9016 215.841 38.9773C215.295 40.0379 215.015 41.3182 215 42.8182Z" fill="black"/>
<path d="M187.892 48.1364L187.045 32.0429C186.996 31.1028 187.606 30.257 188.524 30.0483C191.132 29.4552 196.157 28.5292 196.892 30C197.739 31.693 197.641 54.1664 197.59 61.0258C197.582 62.1223 196.691 63 195.594 63H189.294C188.733 63 188.278 62.5454 188.278 61.9847V61.9847C188.278 61.1566 187.393 60.7478 186.703 61.2066C186.315 61.4654 185.858 61.6894 185.071 61.9434C184.953 61.9818 184.837 62.0303 184.726 62.0869C182.632 63.1527 179.877 63.4546 177.324 63.4546C174.991 63.4546 172.938 62.9243 171.165 61.8637C169.392 60.8031 168.006 59.2955 167.006 57.341C166.021 55.3864 165.521 53.0455 165.506 50.3182V31.962C165.506 31.0589 166.111 30.2683 166.992 30.0701C169.668 29.4682 175.034 28.5064 175.188 30.4319C175.389 32.9633 175.193 48.1479 175.188 48.5815C175.187 48.5951 175.188 48.5979 175.188 48.6116C175.206 50.6624 175.759 52.2843 176.847 53.4773C177.937 54.6743 179.4 55.2728 181.233 55.2728C182.4 55.2728 183.491 55.0076 184.506 54.4773C185.521 53.9319 186.339 53.1288 186.96 52.0682C187.597 51.0076 187.907 49.697 187.892 48.1364Z" fill="black"/>
<path d="M215 42.8182V61C215 62.1046 214.105 63 213 63H207.318C206.214 63 205.318 62.1046 205.318 61V30.091C205.318 28.9864 206.214 28.091 207.318 28.091H212.724C213.73 28.091 214.545 28.9065 214.545 29.9125V30.3897C214.545 30.41 214.54 30.43 214.529 30.4474V30.4474C214.459 30.5634 214.339 30.4992 214.434 30.4022C214.807 30.0209 215.314 30.3294 217.392 29.2273C220.392 27.6364 222.864 27.6364 225.455 27.6364C227.879 27.6364 229.992 28.1667 231.795 29.2273C233.598 30.2879 235 31.8031 236 33.7728C237 35.7273 237.5 38.0607 237.5 40.7728V61C237.5 62.1046 236.605 63 235.5 63H229.818C228.714 63 227.818 62.1046 227.818 61V42.5C227.833 40.3637 227.288 38.697 226.182 37.5C225.076 36.2879 223.553 35.6819 221.614 35.6819C220.311 35.6819 219.159 35.9622 218.159 36.5228C217.174 37.0834 216.402 37.9016 215.841 38.9773C215.295 40.0379 215.015 41.3182 215 42.8182Z" fill="black"/>
<path d="M249.96 63.591C248.46 63.591 247.172 63.0607 246.096 62C245.036 60.9243 244.505 59.6364 244.505 58.1364C244.505 56.6516 245.036 55.3788 246.096 54.3182C247.172 53.2576 248.46 52.7273 249.96 52.7273C251.414 52.7273 252.687 53.2576 253.778 54.3182C254.869 55.3788 255.414 56.6516 255.414 58.1364C255.414 59.1364 255.157 60.0531 254.642 60.8864C254.142 61.7046 253.483 62.3637 252.664 62.8637C251.846 63.3485 250.945 63.591 249.96 63.591Z" fill="black"/>
</g>
<defs>
<filter id="filter0_d_11_4" x="-1286.28" y="-2512.55" width="2216" height="3070.43" filterUnits="userSpaceOnUse" color-interpolation-filters="sRGB">
<feFlood flood-opacity="0" result="BackgroundImageFix"/>
<feColorMatrix in="SourceAlpha" type="matrix" values="0 0 0 0 0 0 0 0 0 0 0 0 0 0 0 0 0 0 127 0" result="hardAlpha"/>
<feOffset dy="160"/>
<feGaussianBlur stdDeviation="54"/>
<feComposite in2="hardAlpha" operator="out"/>
<feColorMatrix type="matrix" values="0 0 0 0 0 0 0 0 0 0 0 0 0 0 0 0 0 0 0.05 0"/>
<feBlend mode="normal" in2="BackgroundImageFix" result="effect1_dropShadow_11_4"/>
<feBlend mode="normal" in="SourceGraphic" in2="effect1_dropShadow_11_4" result="shape"/>
</filter>
</defs>
</svg>
